<svg
    width="129"
    height="45"
    viewBox="0 0 129 45"
    fill="none"
    xmlns="http://www.w3.org/2000/svg"
  >
    <g clipPath="url(#clip0_1410_46637)">
      <path
        d="M20.0585 6.7729L15.2331 1.94752C14.6182 1.33095 13.8877 0.841606 13.0836 0.507447C12.2794 0.173287 11.4173 0.000865227 10.5464 2.84695e-05C8.94031 -0.00484896 7.39568 0.617152 6.24114 1.7337C5.63823 2.31571 5.15716 3.01187 4.82594 3.78163C4.49473 4.55139 4.32001 5.37936 4.31194 6.21731C4.30387 7.05527 4.46262 7.88644 4.77895 8.66244C5.09528 9.43843 5.56287 10.1437 6.15446 10.7372L14.9095 19.4923C15.0952 19.6683 15.3413 19.7664 15.5972 19.7664C15.8531 19.7664 16.0992 19.6683 16.2849 19.4923L20.0527 15.7244C20.2897 15.4413 24.2309 10.9395 20.0585 6.7729Z"
        fill="#15A9CA"
      />
      <path
        d="M27.9641 14.4819C27.0453 13.5919 26.0918 12.6731 25.2307 11.6791V11.6444C25.2 11.7348 25.1768 11.8276 25.1614 11.9218C24.7998 14.034 23.7637 15.9723 22.2083 17.4464C17.1287 22.4914 11.9912 27.6462 7.02135 32.6334L6.351 33.298C5.32655 34.2403 4.63513 35.4893 4.38039 36.8578C4.27279 37.8333 4.3749 38.8206 4.67988 39.7535C4.98485 40.6863 5.48565 41.5432 6.14873 42.2668C6.71482 42.9089 7.41649 43.4173 8.20302 43.7551C8.98956 44.0928 9.84132 44.2517 10.6967 44.2201C12.6789 44.249 13.644 43.989 15.0887 42.5847C20.8676 36.9271 26.6465 31.2234 31.0212 26.8892C33.0842 24.8377 33.5581 21.4397 32.096 19.1512C30.907 17.4378 29.5201 15.8706 27.9641 14.4819Z"
        fill="#52CAA3"
      />
      <path
        d="M-0.00585927 11.4596V32.7722C-0.00595788 33.0066 0.0634701 33.2357 0.193637 33.4306C0.323804 33.6255 0.50886 33.7775 0.725393 33.8672C0.941926 33.9569 1.1802 33.9803 1.41007 33.9346C1.63994 33.8888 1.85108 33.7759 2.01676 33.6101L12.7424 22.8845C12.945 22.68 13.0586 22.4037 13.0586 22.1159C13.0586 21.828 12.945 21.5518 12.7424 21.3473L2.01676 10.6216C1.90904 10.5117 1.78045 10.4244 1.63854 10.3649C1.49663 10.3054 1.34427 10.2748 1.19038 10.2749C0.875111 10.2749 0.572576 10.3993 0.348568 10.6212C0.12456 10.843 -0.0028132 11.1443 -0.00585927 11.4596Z"
        fill="#5268AD"
      />
      <path
        d="M46.8032 31.1657V13.0835H52.1661C58.0432 13.0835 61.7013 16.5508 61.7013 22.1159C61.7013 27.681 58.0432 31.1657 52.1661 31.1657H46.8032ZM49.6927 28.5767H52.2874C56.2575 28.5767 58.8176 26.0456 58.8176 22.1333C58.8176 18.2209 56.2575 15.6898 52.2874 15.6898H49.6927V28.5767Z"
        fill="#1D2434"
      />
      <path
        d="M74.6113 31.443C73.3865 31.443 72.1736 31.2017 71.042 30.733C69.9104 30.2643 68.8821 29.5773 68.016 28.7112C67.1499 27.8451 66.4629 26.8168 65.9942 25.6852C65.5254 24.5536 65.2842 23.3407 65.2842 22.1159C65.2842 20.891 65.5254 19.6781 65.9942 18.5465C66.4629 17.4149 67.1499 16.3867 68.016 15.5206C68.8821 14.6544 69.9104 13.9674 71.042 13.4987C72.1736 13.03 73.3865 12.7887 74.6113 12.7887C75.8362 12.7887 77.0491 13.03 78.1807 13.4987C79.3123 13.9674 80.3405 14.6544 81.2066 15.5206C82.0728 16.3867 82.7598 17.4149 83.2285 18.5465C83.6972 19.6781 83.9385 20.891 83.9385 22.1159C83.9385 23.3407 83.6972 24.5536 83.2285 25.6852C82.7598 26.8168 82.0728 27.8451 81.2066 28.7112C80.3405 29.5773 79.3123 30.2643 78.1807 30.733C77.0491 31.2017 75.8362 31.443 74.6113 31.443ZM74.6113 15.4701C72.8967 15.5416 71.2761 16.2731 70.0882 17.5116C68.9003 18.7501 68.237 20.3998 68.237 22.1159C68.237 23.832 68.9003 25.4817 70.0882 26.7201C71.2761 27.9586 72.8967 28.6901 74.6113 28.7616C76.3591 28.721 78.0222 28.0004 79.247 26.7529C80.4718 25.5054 81.1618 23.8294 81.1704 22.0812C81.175 20.3354 80.4871 18.6591 79.2575 17.4197C78.028 16.1804 76.3571 15.4793 74.6113 15.4701Z"
        fill="#1D2434"
      />
      <path
        d="M110.649 13.0835H107.678V31.1484H110.649V13.0835Z"
        fill="#1D2434"
      />
      <path
        d="M121.582 31.443C119.674 31.4277 117.788 31.0247 116.04 30.2583V27.6C117.776 28.4144 119.665 28.8517 121.582 28.8829C123.894 28.8829 125.437 27.8254 125.437 26.2593C125.437 24.4968 123.553 23.7975 121.559 23.0578C118.433 21.902 116.04 20.7867 116.04 17.8279C116.04 14.1121 119.404 12.7887 122.287 12.7887C123.908 12.7898 125.515 13.0915 127.026 13.6787V16.2792C125.494 15.668 123.862 15.3429 122.212 15.3199C119.993 15.3199 118.999 16.4756 118.999 17.6314C118.999 19.1628 120.664 19.7754 122.617 20.4804C126.026 21.7113 128.627 22.9133 128.627 26.1438C128.615 29.2759 125.726 31.443 121.582 31.443Z"
        fill="#1D2434"
      />
      <path
        d="M97.3341 23.8438L98.461 23.3583C99.4209 22.9458 100.239 22.2616 100.815 21.3898C101.391 20.5181 101.7 19.4969 101.703 18.4521C101.703 15.1928 99.3567 13.0892 95.7275 13.0892H88.8795V31.1657H91.769V15.6435H95.4212C95.8543 15.6174 96.2882 15.6805 96.6959 15.829C97.1036 15.9775 97.4764 16.2082 97.7912 16.5068C98.106 16.8053 98.3562 17.1654 98.526 17.5647C98.6959 17.9639 98.782 18.3938 98.7788 18.8277C98.777 19.2601 98.6876 19.6877 98.5159 20.0846C98.3443 20.4815 98.0941 20.8396 97.7804 21.1371C97.4666 21.4347 97.0958 21.6656 96.6903 21.816C96.2849 21.9663 95.8532 22.0329 95.4212 22.0119H93.8841C93.2079 22.1101 93.5604 22.688 93.5604 22.688L99.3914 31.1657H102.656L97.3341 23.8438Z"
        fill="#1D2434"
      />
    </g>
    <defs>
      <clipPath id="clip0_1410_46637">
        <rect width="128.615" height="44.226" fill="white" />
      </clipPath>
    </defs>
</svg>
